<mxfile host="app.diagrams.net" modified="2024-04-26T10:04:38.403Z" agent="Mozilla/5.0 (Windows NT 10.0; Win64; x64) AppleWebKit/537.36 (KHTML, like Gecko) Chrome/124.0.0.0 Safari/537.36" version="24.2.8" etag="7i-NuzLBjJ_ZrrZvYbcK" type="github">
  <diagram name="Page-1" id="lOAF1gUoOr3TLmXdT4FP">
    <mxGraphModel>
      <root>
        <mxCell id="0" />
        <mxCell id="1" parent="0" />
      </root>
    </mxGraphModel>
  </diagram>
</mxfile>
